<svg width="338" height="250" viewBox="0 0 338 250" fill="none" xmlns="http://www.w3.org/2000/svg">
<path d="M315.368 132.766C366.867 171.39 314.128 236.086 288.092 250H60.9247C20.4232 223.229 -21.8698 142.492 12.8458 56.8599C56.2404 -50.18 174.714 17.1848 191.108 70.0848C211.664 136.417 269.08 98.0502 315.368 132.766Z" fill="#F3CC01"/>
<path d="M242.052 143.069L245.84 146.215C246.612 152.122 243.104 164.943 222.898 168.97C202.693 172.997 198.834 154.988 199.43 145.481C200.862 144.39 205.99 136.288 208.376 132.373C213.343 134.135 226.722 129.052 232.791 126.291C234.089 133.041 237.12 139.929 242.052 143.069Z" fill="#FFD0A9"/>
<path fill-rule="evenodd" clip-rule="evenodd" d="M204.22 138.96C202.974 140.867 201.736 142.688 200.784 143.939C211.619 159.355 230.89 150.543 237.738 138.812C235.288 135.343 233.655 130.786 232.79 126.291C231.102 127.059 228.848 128.007 226.367 128.937L204.22 138.96Z" fill="#F6C399"/>
<path d="M199.499 145.516C164.136 146.189 141.367 171.137 134.351 180.741L144.665 243.619L282.645 246.143L277.277 218.699C289.591 217.788 308.599 206.565 309.693 206.397C310.788 206.229 310.991 205.556 310.956 205.24C309.693 165.389 281.066 147.304 242.019 143.098C240.09 147.304 238.441 161.343 218.549 162.235C205.414 162.824 200.341 149.477 199.499 145.516Z" fill="#60A6FD"/>
<path fill-rule="evenodd" clip-rule="evenodd" d="M310.84 202.756C302.296 200.069 284.284 197.587 262.071 203.812C262.112 198.653 261.69 186.048 259.678 176.906C253.785 194.799 227.911 230.852 170.083 244.084L282.644 246.143L277.276 218.699C286.974 217.981 300.824 210.868 306.805 207.796C308.419 206.967 309.46 206.433 309.692 206.397C310.787 206.229 310.991 205.556 310.955 205.24C310.929 204.403 310.89 203.575 310.84 202.756Z" fill="#569DF4"/>
<path fill-rule="evenodd" clip-rule="evenodd" d="M280.383 153.952C270.867 151.398 258.829 149.306 248.143 150.383C246.9 163.073 211.083 184.564 194.138 151.915C175.403 154.807 151.57 167.895 142.616 189.248L135.96 190.552L134.351 180.741C141.367 171.137 164.136 146.189 199.499 145.516C200.341 149.477 205.414 162.824 218.549 162.235C235.703 161.466 239.29 150.919 241.19 145.333C241.493 144.442 241.754 143.677 242.019 143.098C256.538 144.662 269.616 148.145 280.383 153.952Z" fill="#73B2FF"/>
<rect x="85.8591" y="243.663" width="227.305" height="6.33698" rx="3.16849" fill="#A0732C"/>
<rect x="183.118" y="238.704" width="52.6245" height="5.2349" rx="1.3776" fill="#082841"/>
<path d="M188.843 236.621L170.768 184.548C169.999 182.331 167.909 180.844 165.562 180.844H103.526C99.7355 180.844 97.0768 184.583 98.3209 188.163L116.415 240.237C117.185 242.453 119.274 243.939 121.62 243.939H183.638C187.428 243.939 190.086 240.201 188.843 236.621Z" fill="#082841"/>
<path d="M194.551 137.826C189.08 130.112 187.221 113.442 186.976 106.072C202.337 94.2294 229.167 98.1068 239.478 107.958C246.422 121.896 235.866 133.214 233.165 137.302C219.277 155.851 201.39 147.467 194.551 137.826Z" fill="#FCDBBC"/>
<path d="M225.59 114.935C229.737 115.184 232.813 118.287 233.832 119.808L236.25 114.935L233.015 100.188L189.304 114.935C200.683 125.915 220.406 114.624 225.59 114.935Z" fill="#FFD0A9"/>
<path d="M197.722 117.721C210.24 119.805 219.077 108.371 232.752 114.674C233.341 117.112 233.383 118.141 233.488 121.083C234.365 119.402 237.965 115.461 240.221 118.667C242.956 122.554 238.748 127.282 235.066 126.651C235.592 129.173 235.592 131.484 235.592 134.006C264.836 106.585 230.438 78.4282 203.613 86.3078C182.154 92.6115 182.574 105.394 185.204 111.838C188.36 116.881 193.178 116.965 197.722 117.721Z" fill="#082841"/>
<rect x="44.8063" y="57.4108" width="124.315" height="77.6969" rx="3.42688" fill="#DEEDFF"/>
<rect x="40.122" y="53.278" width="124.315" height="77.6969" rx="3.42688" fill="white"/>
<circle cx="78.9708" cy="92.1262" r="15.5394" fill="#94C4FF"/>
<mask id="mask0_27_427" style="mask-type:alpha" maskUnits="userSpaceOnUse" x="63" y="76" width="32" height="32">
<circle cx="78.9706" cy="92.1264" r="15.5394" transform="rotate(-45 78.9706 92.1264)" fill="#0194F3"/>
</mask>
<g mask="url(#mask0_27_427)">
<path d="M102.046 86.8522L79.6305 92.7858L79.3009 68.9418L102.046 86.8522Z" fill="#F3CC01"/>
</g>
<rect x="111.604" y="98.3423" width="6.21575" height="9.32363" rx="0.856719" fill="#CFE5FF"/>
<rect x="120.927" y="83.4244" width="6.21575" height="24.2414" rx="0.856719" fill="#CFE5FF"/>
<rect x="130.25" y="92.1264" width="6.21575" height="15.5394" rx="0.856719" fill="#CFE5FF"/>
<rect x="139.574" y="87.7755" width="6.21575" height="19.8904" rx="0.856719" fill="#CFE5FF"/>
<path d="M298.725 235.984C308.402 228.455 307.069 213.104 305.035 204.539C294.012 201.325 274.629 205.006 266.6 207.156C265.506 216.123 265.417 217.269 265.382 218.643C252.845 221.265 236.387 227.067 229.726 229.64C212.981 228.371 204.167 235.173 201.853 238.733H236.142C237.72 239.262 286.629 245.394 298.725 235.984Z" fill="#FCDBBC"/>
<path fill-rule="evenodd" clip-rule="evenodd" d="M267.174 207.005C274.652 206.511 287.279 206.875 295.513 211.279C296.476 216.778 296.085 228.396 286.821 230.877C278.945 232.987 256.161 236.94 241.041 239.432C254.022 240.957 288.79 243.713 298.725 235.984C308.401 228.455 307.069 213.104 305.035 204.539C294.267 201.399 275.519 204.84 267.174 207.005Z" fill="#FFD0A9"/>
<circle cx="195.882" cy="126.576" r="2.4885" fill="white"/>
<circle cx="195.355" cy="127.195" r="1.46929" fill="#082841"/>
<circle cx="213.694" cy="126.024" r="2.4885" fill="white"/>
<circle cx="213.287" cy="126.57" r="1.46929" fill="#082841"/>
<path d="M202.773 140.457C204.776 140.888 209.856 141.065 214.148 138.325" stroke="#F3BF94" stroke-width="1.3776" stroke-linecap="round"/>
<path d="M192.658 123.027C193.769 122.277 196.588 121.278 198.977 123.286" stroke="#082841" stroke-width="1.3776" stroke-linecap="round"/>
<path d="M210.535 122.476C211.646 121.726 214.465 120.727 216.854 122.735" stroke="#082841" stroke-width="1.3776" stroke-linecap="round"/>
<path d="M5.26927 191.727C8.76196 188.817 13.8527 203.318 16.4277 209.498C19.3551 216.524 23.3161 217.902 25.7958 221.484C28.2755 225.065 18.3972 228.669 14.0858 221.484C7.47324 210.463 3.61581 193.105 5.26927 191.727Z" fill="#F3CC01"/>
</svg>
